HIERARCHY
ROOT Hips
{
 OFFSET 0.000000 0.000000 0.000000
 CHANNELS 6 Xposition Yposition Zposition Yrotation Xrotation Zrotation
 JOINT Chest
 {
  OFFSET 0.000000 12.953391 -0.028419
  CHANNELS 3 Yrotation Xrotation Zrotation
  JOINT Chest2
  {
   OFFSET 0.000000 10.280254 0.051622
   CHANNELS 3 Yrotation Xrotation Zrotation
   JOINT Chest3
   {
    OFFSET 0.000000 9.287180 0.000000
    CHANNELS 3 Yrotation Xrotation Zrotation
    JOINT Chest4
    {
     OFFSET 0.000000 9.287180 0.000000
     CHANNELS 3 Yrotation Xrotation Zrotation
     JOINT Neck
     {
      OFFSET 0.000000 13.296264 0.000000
      CHANNELS 3 Yrotation Xrotation Zrotation
      JOINT Head
      {
       OFFSET 0.000000 8.959264 0.099003
       CHANNELS 3 Yrotation Xrotation Zrotation
       End Site
       {
        OFFSET 0.000000 17.121337 0.039303
       }
      }
     }
     JOINT RightCollar
     {
      OFFSET -3.193511 7.451388 0.000000
      CHANNELS 3 Yrotation Xrotation Zrotation
      JOINT RightShoulder
      {
       OFFSET -15.792092 0.000000 0.000000
       CHANNELS 3 Yrotation Xrotation Zrotation
       JOINT RightElbow
       {
        OFFSET -31.151839 0.000000 0.000000
        CHANNELS 3 Yrotation Xrotation Zrotation
        JOINT RightWrist
        {
         OFFSET -25.536298 0.000000 0.002321
         CHANNELS 3 Yrotation Xrotation Zrotation
         End Site
         {
          OFFSET -19.133213 0.000000 0.000000
         }
        }
       }
      }
     }
     JOINT LeftCollar
     {
      OFFSET 3.193511 7.451388 0.000000
      CHANNELS 3 Yrotation Xrotation Zrotation
      JOINT LeftShoulder
      {
       OFFSET 15.792092 0.000000 0.000000
       CHANNELS 3 Yrotation Xrotation Zrotation
       JOINT LeftElbow
       {
        OFFSET 31.151839 0.000000 0.000000
        CHANNELS 3 Yrotation Xrotation Zrotation
        JOINT LeftWrist
        {
         OFFSET 25.536298 0.000000 0.002321
         CHANNELS 3 Yrotation Xrotation Zrotation
         End Site
         {
          OFFSET 19.133213 0.000000 0.000000
         }
        }
       }
      }
     }
    }
   }
  }
 }
 JOINT RightHip
 {
  OFFSET -10.745749 0.139252 0.014209
  CHANNELS 3 Yrotation Xrotation Zrotation
  JOINT RightKnee
  {
   OFFSET 0.000000 -43.743899 -0.006071
   CHANNELS 3 Yrotation Xrotation Zrotation
   JOINT RightAnkle
   {
    OFFSET 0.000000 -43.214199 0.089931
    CHANNELS 3 Yrotation Xrotation Zrotation
    JOINT RightToe
    {
     OFFSET 0.000000 -9.699830 19.151588
     CHANNELS 3 Yrotation Xrotation Zrotation
     End Site
     {
      OFFSET 0.000000 -1.292898 4.893873
     }
    }
   }
  }
 }
 JOINT LeftHip
 {
  OFFSET 10.745749 0.139252 0.014209
  CHANNELS 3 Yrotation Xrotation Zrotation
  JOINT LeftKnee
  {
   OFFSET 0.000000 -43.743899 -0.006071
   CHANNELS 3 Yrotation Xrotation Zrotation
   JOINT LeftAnkle
   {
    OFFSET 0.000000 -43.214199 0.089931
    CHANNELS 3 Yrotation Xrotation Zrotation
    JOINT LeftToe
    {
     OFFSET 0.000000 -9.699830 19.151588
     CHANNELS 3 Yrotation Xrotation Zrotation
     End Site
     {
      OFFSET 0.000000 -1.292898 4.893873
     }
    }
   }
  }
 }
}
MOTION
Frames: 7
Frame Time: 0.016667
-26.235418 103.437498 -29.134916 -6.664768 -2.166768 -2.083302 0.287171 8.141839 7.396022 -0.002736 3.622825 3.273482 -0.002683 3.622765 3.273447 -0.021402 2.717091 2.454251 -0.372784 19.940637 13.099250 -4.555919 1.888651 23.980974 10.628862 -6.027546 2.298900 -27.014125 -29.604273 32.718448 -6.008839 2.746470 -6.840693 0.372553 13.494644 -15.203122 -2.614127 -0.167891 -1.840799 9.788735 -23.368274 -33.780628 6.623974 -4.135053 6.555972 6.643524 2.726874 7.759097 -7.115172 -19.382621 -1.853848 5.831395 25.922245 2.333873 20.136519 17.655847 21.413578 -0.052249 1.162646 0.509313 3.479510 -7.948421 7.359785 -2.223018 15.755020 -1.791838 -11.711169 4.097575 -16.600458 0.000000 0.000000 -0.000000
-27.775713 103.279669 -29.325373 -8.661207 -2.050015 -2.185747 0.488929 8.427551 7.481724 0.080603 3.752976 3.306927 0.080714 3.752877 3.306850 0.040255 2.815117 2.478695 -0.200567 19.605505 13.016153 -4.282626 1.226358 23.814090 11.461732 -3.278873 2.947697 -27.721640 -33.392335 33.423830 -5.955216 2.975024 -6.988134 0.259735 13.107145 -15.130762 -3.213790 0.691770 -1.659500 11.084026 -24.149750 -33.399996 6.795601 -4.421520 6.552131 6.724571 2.456374 7.562844 -7.459278 -20.944445 -1.830160 8.513171 28.062347 3.036819 21.751565 12.687606 22.057490 -0.033914 0.575120 0.268466 1.337144 -8.542413 7.030623 -0.427858 16.656519 -1.749862 -7.156317 4.728418 -14.274649 -0.000000 0.000000 -0.000000
-29.369308 102.820472 -29.446588 -10.275075 -1.960377 -2.313314 0.573781 8.616910 7.534474 0.113925 3.838660 3.328196 0.113925 3.838660 3.328196 0.064481 2.879716 2.494496 -0.103945 19.361031 12.924210 -4.124655 0.745135 23.643325 11.674076 -1.353406 3.157379 -27.989791 -35.930826 34.222725 -5.945074 3.259083 -7.136602 0.142160 12.910615 -15.039772 -3.487816 0.751913 -1.405814 11.803813 -24.151443 -32.790181 6.961636 -4.445304 6.698993 6.803074 2.181515 7.476682 -7.185645 -22.333627 -2.238096 10.040299 30.003660 3.451336 21.830654 8.267934 21.335794 0.000000 0.000000 0.000000 0.233125 -9.246596 6.977880 0.759016 17.916863 -1.545790 -3.365751 4.472616 -11.903281 -0.000000 0.000000 -0.000000
-31.031245 101.978078 -29.439326 -11.357718 -1.854491 -2.547184 0.481251 8.631053 7.605077 0.071195 3.843693 3.361286 0.071093 3.843810 3.361381 0.032066 2.883429 2.519712 -0.102283 19.284463 12.795533 -4.098119 0.585518 23.416059 10.728187 -0.788859 2.605920 -27.158601 -36.388394 34.952057 -6.025757 3.601639 -7.263928 0.041819 13.138960 -14.908454 -3.162355 -0.574383 -1.030981 11.547542 -22.642555 -31.852093 7.090108 -4.148281 7.116468 6.852947 1.914197 7.623950 -5.774599 -23.474404 -3.340267 9.317773 31.585006 3.283798 20.168075 5.178986 19.180371 -0.000000 -0.000000 0.000000 1.073364 -10.083564 7.180903 0.774222 19.504027 -1.030377 -1.587590 2.988299 -9.783589 0.000000 -0.000000 -0.000000
-32.746481 100.834315 -29.362822 -12.058053 -1.775203 -2.803151 0.271572 8.548726 7.654114 -0.021165 3.803665 3.387127 -0.021213 3.803755 3.387192 -0.037045 2.852865 2.539640 -0.181423 19.295426 12.649716 -4.198235 0.599300 23.172835 9.168862 -1.113222 1.660373 -25.761997 -35.619116 35.597952 -6.150576 4.001179 -7.396619 -0.057646 13.559039 -14.768423 -2.520132 -2.694374 -0.532024 10.718937 -20.359722 -30.765766 7.209921 -3.577850 7.671144 6.903771 1.649871 7.884278 -3.680471 -24.417147 -4.983362 7.346694 33.059301 2.681536 17.111391 2.466364 16.102832 -0.000000 -0.000000 -0.000000 2.952729 -11.033342 7.586641 0.177063 21.469042 -0.323560 -0.613555 0.680609 -7.737128 -0.000000 -0.000000 -0.000000
-34.494830 99.643511 -29.339629 -12.542940 -1.734890 -2.927714 0.053709 8.436969 7.651656 -0.115712 3.750290 3.390252 -0.115712 3.750290 3.390252 -0.107588 2.812178 2.542491 -0.352413 19.316557 12.503773 -4.462066 0.650229 22.957202 7.952680 -2.174189 0.912873 -24.669519 -34.311172 35.749703 -6.252590 4.361069 -7.570169 -0.161814 13.835394 -14.647132 -2.018103 -4.446858 -0.092215 9.805619 -18.637269 -29.808545 7.220745 -2.866073 8.116135 6.954648 1.432135 8.176911 -2.168099 -25.123387 -6.656277 5.961349 34.173691 1.902657 13.517854 0.260724 12.852082 0.000000 0.000000 0.000000 4.678456 -11.977871 8.099084 -0.663294 23.525088 0.181882 -0.020798 -1.978783 -6.363397 0.000000 -0.000000 0.000000
-36.248464 98.429223 -29.418379 -12.829376 -1.734733 -2.827750 -0.134181 8.292968 7.569115 -0.195131 3.683195 3.357374 -0.195149 3.683160 3.357373 -0.166589 2.761371 2.518338 -0.662339 19.328730 12.350054 -4.976057 0.710665 22.770844 7.507758 -4.390935 0.613786 -24.151050 -32.217658 34.876133 -6.342271 4.619961 -7.813849 -0.294795 13.799391 -14.507020 -1.793782 -5.446370 0.237576 8.888840 -17.987878 -28.963773 7.031233 -2.045141 8.329450 7.010742 1.254594 8.501493 -2.086676 -25.643958 -8.051363 6.265598 34.702576 0.988499 9.400476 -1.506735 9.358977 -0.000000 -0.000000 0.000000 5.961928 -12.914344 8.699390 -1.885666 25.728569 0.214112 0.258199 -5.111677 -5.905607 0.000000 -0.000000 -0.000000
